<svg width="29" height="29" viewBox="0 0 29 29" fill="none" xmlns="http://www.w3.org/2000/svg">
<g filter="url(#filter0_d)">
<path opacity="0.5" d="M24.0588 5H20.2941V15.3529C20.2941 15.8729 19.8729 16.2941 19.3529 16.2941H9V20.0588C9 20.5788 9.42118 21 9.94118 21H24.0588C24.5788 21 25 20.5788 25 20.0588V5.94118C25 5.42118 24.5788 5 24.0588 5Z" fill="#0F53FA"/>
<path d="M19.0588 16H4.94118C4.42118 16 4 15.5788 4 15.0588V0.941176C4 0.421176 4.42118 0 4.94118 0H19.0588C19.5788 0 20 0.421176 20 0.941176V15.0588C20 15.5788 19.5788 16 19.0588 16Z" fill="#0F53FA"/>
</g>
<defs>
<filter id="filter0_d" x="0" y="0" width="29" height="29" filterUnits="userSpaceOnUse" color-interpolation-filters="sRGB">
<feFlood flood-opacity="0" result="BackgroundImageFix"/>
<feColorMatrix in="SourceAlpha" type="matrix" values="0 0 0 0 0 0 0 0 0 0 0 0 0 0 0 0 0 0 127 0"/>
<feOffset dy="4"/>
<feGaussianBlur stdDeviation="2"/>
<feColorMatrix type="matrix" values="0 0 0 0 0 0 0 0 0 0 0 0 0 0 0 0 0 0 0.25 0"/>
<feBlend mode="normal" in2="BackgroundImageFix" result="effect1_dropShadow"/>
<feBlend mode="normal" in="SourceGraphic" in2="effect1_dropShadow" result="shape"/>
</filter>
</defs>
</svg>
