<svg width="20" height="20" viewBox="0 0 20 20" fill="none" xmlns="http://www.w3.org/2000/svg">
<path d="M16.3535 12.6298C15.4491 12.6302 14.5775 12.9724 13.9097 13.5893L10.4331 10.5754V8C10.1303 8.03132 9.82507 8.03132 9.52225 8V10.5754L6.04562 13.5893C4.62564 12.2952 2.45579 12.3401 1.08931 13.6918C-0.277161 15.0436 -0.369731 17.2368 0.877867 18.7014C2.12546 20.166 4.28364 20.3978 5.8075 19.2308C7.33137 18.0638 7.6962 15.8999 6.64085 14.2881L9.97766 11.3939L13.3145 14.2867C12.3957 15.6964 12.5417 17.5573 13.6688 18.8028C14.7959 20.0483 16.6156 20.3598 18.0851 19.5586C19.5545 18.7575 20.2977 17.0487 19.8886 15.4117C19.4795 13.7748 18.0228 12.6284 16.3535 12.6298Z" fill="#0F53FA"/>
<path fill-rule="evenodd" clip-rule="evenodd" d="M7 3.5C7 5.433 8.567 7 10.5 7C12.4321 6.99783 13.9978 5.4321 14 3.5C14 1.567 12.433 0 10.5 0C8.567 0 7 1.567 7 3.5ZM7.875 3.5C7.875 2.05025 9.05025 0.875 10.5 0.875C11.9491 0.876447 13.1236 2.05085 13.125 3.5C13.125 4.94975 11.9497 6.125 10.5 6.125C9.05025 6.125 7.875 4.94975 7.875 3.5Z" fill="#0F53FA"/>
</svg>
